<?xml version="1.0" encoding="iso-8859-1"?>
<!-- Generator: Adobe Illustrator 19.0.0, SVG Export Plug-In . SVG Version: 6.00 Build 0)  -->
<svg version="1.1" id="Layer_1" xmlns="http://www.w3.org/2000/svg" xmlns:xlink="http://www.w3.org/1999/xlink" x="0px" y="0px"
	 viewBox="0 0 485.632 485.632" style="enable-background:new 0 0 485.632 485.632;" xml:space="preserve">
<path style="fill:#DA544A;" d="M242.816,77.824c-28.152,0-51.456,24-55.36,48h110.72C294.272,101.824,270.968,77.824,242.816,77.824
	z"/>
<path style="fill:#4E82A2;" d="M50.816,461.632c0,4.416,3.592,8,8,8s8-3.584,8-8v-15.808h-16V461.632z"/>
<g>
	<path style="fill:#EBC858;" d="M325.112,379.296l-26.392-26.352l-26.344,26.344c-1.504,1.504-3.536,2.344-5.656,2.344
		s-4.152-0.848-5.656-2.344l-26.336-26.336l-26.336,26.336c-3,3-8.312,3-11.312,0l-26.336-26.336l-26.336,26.336
		c-1.504,1.504-3.536,2.344-5.656,2.344c-2.12,0-4.152-0.848-5.656-2.344l-26.336-26.336l-26.32,26.336
		c-1.504,1.504-3.536,2.344-5.664,2.344s-4.16-0.848-5.664-2.352l-18.296-18.32v36.864h304v-36.896l-18.4,18.368
		C333.296,382.416,328.24,382.416,325.112,379.296z"/>
	<path style="fill:#EBC858;" d="M325.112,331.296l-26.392-26.352l-26.344,26.344c-1.504,1.504-3.536,2.344-5.656,2.344
		s-4.152-0.848-5.656-2.344l-26.336-26.336l-26.336,26.336c-3,3-8.312,3-11.312,0l-26.336-26.336l-26.336,26.336
		c-1.504,1.504-3.536,2.344-5.656,2.344c-2.12,0-4.152-0.848-5.656-2.344l-26.336-26.336l-26.32,26.336
		c-1.504,1.504-3.536,2.344-5.664,2.344s-4.16-0.848-5.664-2.352l-18.296-18.32v25.36l23.968,23.992l26.32-26.336
		c3-3,8.32-3,11.32,0l26.336,26.336l26.344-26.336c1.504-1.504,3.536-2.344,5.656-2.344s4.16,0.84,5.656,2.344l26.336,26.336
		l26.336-26.336c3-3,8.312-3,11.312,0l26.336,26.336l26.344-26.336c3.128-3.128,8.184-3.12,11.304,0l26.392,26.352l24.04-24.008
		v-25.392l-18.4,18.368C333.296,334.416,328.24,334.416,325.112,331.296z"/>
	<path style="fill:#EBC858;" d="M325.112,283.296l-26.392-26.352l-26.344,26.344c-1.504,1.504-3.536,2.344-5.656,2.344
		s-4.152-0.848-5.656-2.344l-26.336-26.336l-26.336,26.336c-3,3-8.312,3-11.312,0l-26.336-26.336l-26.336,26.336
		c-1.504,1.504-3.536,2.344-5.656,2.344c-2.12,0-4.152-0.848-5.656-2.344l-26.336-26.336l-26.32,26.336
		c-1.504,1.504-3.536,2.344-5.664,2.344s-4.16-0.848-5.664-2.352l-18.296-18.32v25.36l23.968,23.992l26.32-26.336
		c3-2.992,8.32-3,11.32,0l26.336,26.336l26.344-26.336c1.504-1.504,3.536-2.344,5.656-2.344s4.16,0.84,5.656,2.344l26.336,26.336
		l26.336-26.336c3-3,8.312-3,11.312,0l26.336,26.336l26.344-26.336c3.128-3.128,8.184-3.12,11.304,0l26.392,26.352l24.04-24.008
		v-25.392l-18.4,18.368C333.296,286.416,328.24,286.416,325.112,283.296z"/>
</g>
<g>
	<path style="fill:#4E82A2;" d="M414.728,213.04c1.312,0.352,2.664,0.6,4.088,0.6c8.824,0,16-7.176,16-16
		c0-1.424-0.248-2.776-0.6-4.088L414.728,213.04z"/>
	<path style="fill:#4E82A2;" d="M442.816,141.824h-400c-13.232,0-24,10.576-24,23.808v240c0,13.24,10.768,24.192,24,24.192h32h336
		h32c13.232,0,24-10.952,24-24.192v-240C466.816,152.4,456.048,141.824,442.816,141.824z M370.816,405.824c0,4.416-3.584,8-8,8h-320
		c-4.416,0-8-3.584-8-8v-240c0-4.416,3.584-8,8-8h320c4.416,0,8,3.584,8,8V405.824z M450.816,413.824h-64v-16h64V413.824z
		 M450.816,381.824h-64v-16h64V381.824z M450.816,349.824h-64v-16h64V349.824z M418.816,309.632c-17.648,0-32-14.352-32-32
		s14.352-32,32-32s32,14.352,32,32C450.816,295.28,436.464,309.632,418.816,309.632z M418.816,229.632c-17.648,0-32-14.352-32-32
		s14.352-32,32-32s32,14.352,32,32S436.464,229.632,418.816,229.632z"/>
</g>
<path style="fill:#EBC858;" d="M325.112,235.296l-26.392-26.352l-26.344,26.344c-1.504,1.504-3.536,2.344-5.656,2.344
	s-4.152-0.848-5.656-2.344l-26.336-26.336l-26.336,26.336c-3,3-8.312,3-11.312,0l-26.336-26.336l-26.336,26.336
	c-1.504,1.504-3.536,2.344-5.656,2.344c-2.12,0-4.152-0.848-5.656-2.344l-26.336-26.336l-26.32,26.336
	c-1.504,1.504-3.536,2.344-5.664,2.344s-4.16-0.848-5.664-2.352l-18.296-18.32v25.36l23.968,23.992l26.32-26.336
	c3-2.992,8.32-3,11.32,0l26.336,26.336l26.344-26.336c1.504-1.504,3.536-2.344,5.656-2.344s4.16,0.84,5.656,2.344l26.336,26.336
	l26.336-26.336c3-3,8.312-3,11.312,0l26.336,26.336l26.344-26.336c3.128-3.128,8.184-3.12,11.304,0l26.392,26.352l24.04-24.008
	v-25.392l-18.4,18.368C333.296,238.416,328.24,238.416,325.112,235.296z"/>
<g>
	<path style="fill:#4E82A2;" d="M418.816,293.824c5.896,0,11,0,13.776-8H405.04C407.816,293.824,412.92,293.824,418.816,293.824z"/>
	<path style="fill:#4E82A2;" d="M418.816,181.632c-8.824,0-16,7.176-16,16c0,1.424,0.248,2.776,0.6,4.088l19.496-19.496
		C421.592,181.88,420.24,181.632,418.816,181.632z"/>
</g>
<path style="fill:#EBC858;" d="M50.816,194.328l23.968,23.992l26.32-26.336c3-3,8.32-3,11.32,0l26.336,26.336l26.344-26.336
	c1.504-1.504,3.536-2.344,5.656-2.344s4.16,0.84,5.656,2.344l26.336,26.336l26.336-26.336c3-3,8.312-3,11.312,0l26.336,26.336
	l26.344-26.336c3.128-3.128,8.184-3.12,11.304,0l26.392,26.352l24.04-24.016v-20.496h-304V194.328z"/>
<g>
	<path style="fill:#4E82A2;" d="M418.816,261.824c-5.896,0-11,0-13.776,8h27.552C429.816,261.824,424.712,261.824,418.816,261.824z"
		/>
	<path style="fill:#4E82A2;" d="M418.816,461.632c0,4.416,3.592,8,8,8s8-3.584,8-8v-15.808h-16V461.632z"/>
</g>
<g>
	<path style="fill:#334C5B;" d="M442.816,125.824H314.344c-3.36-32-25.456-54.832-54.368-61.944l52.496-52.544L301.16,0
		l-58.344,58.336l-34.344-34.352L197.16,35.296l28.496,28.592c-28.904,7.104-51.008,29.936-54.368,61.936H42.816
		c-22.056,0-40,17.76-40,39.808v240c0,19.312,16,35.472,32,39.192v16.808c0,13.232,10.768,24,24,24s24-10.768,24-24v-15.808h320
		v15.808c0,13.232,10.768,24,24,24s24-10.768,24-24v-16.808c16-3.72,32-19.872,32-39.192v-240
		C482.816,143.584,464.872,125.824,442.816,125.824z M242.816,77.824c28.152,0,51.456,24,55.36,48h-110.72
		C191.36,101.824,214.664,77.824,242.816,77.824z M66.816,461.632c0,4.416-3.592,8-8,8s-8-3.584-8-8v-15.808h16V461.632z
		 M434.816,461.632c0,4.416-3.592,8-8,8s-8-3.584-8-8v-15.808h16V461.632z M466.816,405.632c0,13.24-10.768,24.192-24,24.192h-32
		h-336h-32c-13.232,0-24-10.952-24-24.192v-240c0-13.232,10.768-23.808,24-23.808h400c13.232,0,24,10.576,24,23.808V405.632z"/>
	<path style="fill:#334C5B;" d="M370.816,165.824c0-4.416-3.584-8-8-8h-320c-4.416,0-8,3.584-8,8v240c0,4.416,3.584,8,8,8h320
		c4.416,0,8-3.584,8-8V165.824z M354.816,397.824h-304V360.96l18.304,18.328c1.504,1.504,3.536,2.352,5.664,2.352
		c2.12,0,4.152-0.848,5.664-2.344l26.32-26.336l26.336,26.336c1.504,1.504,3.536,2.344,5.656,2.344c2.12,0,4.16-0.848,5.656-2.344
		l26.336-26.336l26.336,26.336c3,3,8.312,3,11.312,0l26.336-26.336l26.336,26.336c1.504,1.504,3.536,2.344,5.656,2.344
		s4.16-0.848,5.656-2.344l26.344-26.344l26.392,26.352c3.128,3.12,8.176,3.12,11.304,0l18.4-18.368v36.888H354.816z M354.816,338.32
		l-24.048,24.016l-26.392-26.352c-3.128-3.12-8.184-3.12-11.304,0l-26.344,26.336l-26.336-26.336c-3-3-8.312-3-11.312,0
		l-26.336,26.336l-26.336-26.336c-1.504-1.504-3.536-2.344-5.656-2.344s-4.152,0.84-5.656,2.344l-26.344,26.336l-26.336-26.344
		c-3-3-8.312-3-11.32,0l-26.32,26.336l-23.96-23.984v-25.36l18.304,18.328c1.504,1.504,3.536,2.352,5.664,2.352
		c2.12,0,4.152-0.848,5.664-2.344l26.32-26.336l26.336,26.336c1.504,1.504,3.536,2.344,5.656,2.344c2.12,0,4.16-0.848,5.656-2.344
		l26.336-26.336l26.336,26.336c3,3,8.312,3,11.312,0l26.336-26.336l26.336,26.336c1.504,1.504,3.536,2.344,5.656,2.344
		s4.16-0.848,5.656-2.344l26.344-26.344l26.392,26.352c3.128,3.12,8.176,3.12,11.304,0l18.4-18.368v25.376H354.816z M354.816,290.32
		l-24.048,24.016l-26.392-26.352c-3.128-3.12-8.184-3.12-11.304,0l-26.344,26.336l-26.336-26.336c-3-3-8.312-3-11.312,0
		l-26.336,26.336l-26.336-26.336c-1.504-1.504-3.536-2.344-5.656-2.344s-4.152,0.84-5.656,2.344l-26.344,26.336l-26.336-26.344
		c-3-3-8.312-2.992-11.32,0l-26.32,26.336l-23.96-23.984v-25.36l18.304,18.328c1.504,1.504,3.536,2.352,5.664,2.352
		c2.12,0,4.152-0.848,5.664-2.344l26.32-26.336l26.336,26.336c1.504,1.504,3.536,2.344,5.656,2.344c2.12,0,4.16-0.848,5.656-2.344
		l26.336-26.336l26.336,26.336c3,3,8.312,3,11.312,0l26.336-26.336l26.336,26.336c1.504,1.504,3.536,2.344,5.656,2.344
		s4.16-0.848,5.656-2.344l26.344-26.344l26.392,26.352c3.128,3.12,8.176,3.12,11.304,0l18.4-18.368v25.376H354.816z M354.816,242.32
		l-24.048,24.016l-26.392-26.352c-3.128-3.12-8.184-3.12-11.304,0l-26.344,26.336l-26.336-26.336c-3-3-8.312-3-11.312,0
		l-26.336,26.336l-26.336-26.336c-1.504-1.504-3.536-2.344-5.656-2.344s-4.152,0.84-5.656,2.344l-26.344,26.336l-26.336-26.344
		c-3-3-8.312-2.992-11.32,0l-26.32,26.336l-23.96-23.984v-25.36l18.304,18.328c1.504,1.504,3.536,2.352,5.664,2.352
		c2.12,0,4.152-0.848,5.664-2.344l26.32-26.336l26.336,26.336c1.504,1.504,3.536,2.344,5.656,2.344c2.12,0,4.16-0.848,5.656-2.344
		l26.336-26.336l26.336,26.336c3,3,8.312,3,11.312,0l26.336-26.336l26.336,26.336c1.504,1.504,3.536,2.344,5.656,2.344
		s4.16-0.848,5.656-2.344l26.344-26.344l26.392,26.352c3.128,3.12,8.176,3.12,11.304,0l18.4-18.368v25.376H354.816z M354.816,194.32
		l-24.048,24.016l-26.392-26.352c-3.128-3.12-8.184-3.12-11.304,0l-26.344,26.336l-26.336-26.336c-3-3-8.312-3-11.312,0
		l-26.336,26.336l-26.336-26.336c-1.504-1.504-3.536-2.344-5.656-2.344s-4.152,0.84-5.656,2.344l-26.344,26.336l-26.336-26.344
		c-3-3-8.312-3-11.32,0l-26.32,26.336l-23.96-23.984v-20.504h304V194.32z"/>
	<path style="fill:#334C5B;" d="M418.816,165.632c-17.648,0-32,14.352-32,32s14.352,32,32,32s32-14.352,32-32
		C450.816,179.992,436.464,165.632,418.816,165.632z M402.816,197.632c0-8.824,7.176-16,16-16c1.424,0,2.776,0.248,4.088,0.592
		l-19.496,19.496C403.064,200.416,402.816,199.056,402.816,197.632z M418.816,213.632c-1.424,0-2.776-0.248-4.088-0.6l19.496-19.496
		c0.344,1.32,0.592,2.672,0.592,4.096C434.816,206.456,427.64,213.632,418.816,213.632z"/>
	<path style="fill:#334C5B;" d="M418.816,245.632c-17.648,0-32,14.352-32,32c0,17.648,14.352,32,32,32s32-14.352,32-32
		C450.816,259.992,436.464,245.632,418.816,245.632z M418.816,293.824c-5.896,0-11,0-13.776-8h27.552
		C429.816,293.824,424.712,293.824,418.816,293.824z M405.04,269.824c2.776-8,7.88-8,13.776-8s11,0,13.776,8H405.04z"/>
	<rect x="386.816" y="333.824" style="fill:#334C5B;" width="64" height="16"/>
	<rect x="386.816" y="365.824" style="fill:#334C5B;" width="64" height="16"/>
	<rect x="386.816" y="397.824" style="fill:#334C5B;" width="64" height="16"/>
</g>
<g>
</g>
<g>
</g>
<g>
</g>
<g>
</g>
<g>
</g>
<g>
</g>
<g>
</g>
<g>
</g>
<g>
</g>
<g>
</g>
<g>
</g>
<g>
</g>
<g>
</g>
<g>
</g>
<g>
</g>
</svg>
