<svg xmlns="http://www.w3.org/2000/svg" viewBox="0 0 549.55 307.2"><defs><style>.cls-1{fill:#ee4142;}.cls-2{fill:#fff;}</style></defs><title>Asset 1</title><g id="Layer_2" data-name="Layer 2"><g id="Layer_1-2" data-name="Layer 1"><path class="cls-1" d="M17,0H532.59a17,17,0,0,1,17,17V290.24a17,17,0,0,1-17,17H17a17,17,0,0,1-17-17V17A17,17,0,0,1,17,0Z"/><path class="cls-2" d="M169,198.27H109.23V88.55H86V218.69h82.94V198.31Zm48.32,20.37V88.51H194V218.65Zm94.66,0,45-130.13H332.12l-32.45,103h-1.51l-32.73-103h-25.6l45.44,130.13h26.67Zm151.64-20.1H402.69V162.13h57.6V143.21h-57.6V108.65h60.95V88.55H379.37V218.69h84.2V198.55Z"/></g></g></svg>